Patient4_TMGait_0pt3_01_left_29_EMG.mot
version=1
nRows=30
nColumns=33
inDegrees=no
endheader
time	1LAddLong	2LGlutMax	3LGlutMed	4LIliopsoas	5LSemiMemb	6LBicFemLong	7LRecFem	8LVastMed	9LVastLat	10LGasMed	11LTibAnt	12lTibPost	13LPeroneusLong	14LSol	15LExtDigLong	16LFlexDigLong	17RAddLong	18RGlutMax	19RGlutMed	20RIliopsoas	21RSemiMemb	22RBicFemLong	23RRecFem	24RVastMed	25RVastLat	26RGasMed	27RTibAnt	28RTibPost	29RPeroneusLong	30RSol	31RExtDigLong	32RFlexDigLong
54.73	0.008698	0.55618	0.019226	0.02243	0.009918	-0.018463	-0.0383	0.001984	0.013733	0.022583	-0.10269	0.003662	0.000916	-0.082855	0.044861	-0.006409	0.025177	0.009308	0.000916	-0.011444	0.040741	0.19073	-0.10559	0.011139	-0.40588	0.016327	-0.072479	-0.012512	-0.48309	0.14969	0.000153	-0.002899
54.731	0.015869	0.56625	0.01709	0.02655	0.022736	-0.028229	-0.03067	0.002747	0.022736	0.014038	-0.16052	0.019684	0.030975	-0.01709	0.048676	-0.02121	0.020142	0.036774	0.2243	0.070496	0.11169	0.35156	-0.081177	-0.02182	-0.26718	0.026245	-0.014038	-0.010376	0.2124	0.080261	-0.00412	-0.003967
54.732	0.018311	0.55588	0.007629	-0.016022	0.024414	-0.003662	-0.033112	0.007019	0.026703	0.013123	-0.15961	0.019226	0.05249	0.054474	-0.10407	-0.003204	-0.010223	0.069122	0.2861	0.095825	0.092163	0.25665	-0.03479	0.00946	-0.15121	0.033875	-0.15274	-0.007477	1.5671	-0.060425	0.000305	-0.010986
54.733	0.015259	0.58472	-0.047302	-0.010986	0.023346	0.010071	-0.029907	0.001526	0.027161	0.016174	-0.09552	0.003357	0.01358	0.031128	-0.16403	-0.020599	-0.012817	0.076752	-0.060883	0.091095	0.12466	-0.062256	-0.053558	0.026398	-0.099335	-0.000153	-0.081024	-0.011444	-0.93948	-0.091858	0.000305	-0.00946
54.734	0.027618	0.5809	-0.055237	-0.005493	0.027771	-0.014648	-0.020905	-0.005341	0.008392	0.023956	0.05127	0.013733	-0.02594	0.021973	-0.0383	0.007172	-0.016174	0.15442	0.004425	0.087891	0.002441	-0.16953	-0.010376	0.032654	0.074005	-0.027161	0.046082	-0.010376	-1.8832	-0.2298	-0.003052	-0.009308
54.735	0.023346	0.56259	-0.028534	-0.00824	0.019226	-0.019989	-0.027313	-0.006104	0.016327	0.027466	0.12497	0.011597	-0.024414	0.044861	0.10651	-0.001526	-0.016022	0.1767	-0.032654	0.10574	-0.027466	-0.001678	-0.014801	-0.030518	0.33432	-0.043335	0.00412	-0.023651	0.014801	-0.16083	-0.001526	-0.009918
54.736	0.021362	0.58731	0.0383	-0.031281	0.020752	-0.039978	-0.035553	-0.013428	0.038605	-0.006409	0.11231	0.011139	0.003204	0.006714	0.15549	0.000153	-0.039368	0.25513	0.21164	-0.070496	-0.036926	0.1297	-0.025177	-0.10742	0.37842	-0.098724	-0.01358	-0.030212	1.1021	-0.1741	0.002747	-0.015564
54.737	0.016937	0.60699	0.033569	-0.001678	0.014038	-0.031128	-0.036926	-0.08606	0.037537	0.01709	0.007935	0.008087	-0.017548	-0.030365	0.11139	-0.000305	-0.03891	0.18677	0.019531	-0.10544	-0.058289	-0.037842	-0.06012	-0.037689	0.28351	-0.12665	-0.095673	-0.038757	0.87891	0.31113	-0.002594	-0.005188
54.738	0.011292	0.57144	-0.019379	0.015869	0.007782	-0.014496	-0.025635	-0.015717	0.039368	0.000458	-0.050354	0.007477	0.005493	-0.1239	0.072784	-0.004578	-0.014343	0.16403	-0.77774	-0.082703	-0.009613	-0.1001	0.032806	0.31052	0.15778	0.04715	-0.20325	-0.070648	0.81619	0.15259	-0.004272	0.006256
54.739	0.003357	0.55832	-0.006104	0.00946	0.005493	-0.029144	-0.009613	0.005798	0.045319	-0.016785	-0.052032	0.012665	0.056458	-0.11215	0.032959	-0.014343	0.023499	0.13718	-0.1535	-0.085602	-0.02182	0.009918	0.049286	1.0408	0.061188	0.006104	-0.14801	-0.05249	0.50217	0.098114	-0.002289	-0.007324
54.74	0.002441	0.55725	0.011597	0.017395	0.011292	-0.050507	-0.027924	0.008392	0.040588	-0.023041	-0.045624	0.010681	0.084839	-0.042572	0.037384	-0.007782	0.050049	0.1474	0.22705	-0.002899	-0.16113	0.23682	0.16632	0.99899	0.075226	-0.000305	-0.025635	0.046997	-0.017395	0.33356	-0.001526	-0.002136
54.741	0.006256	0.5574	0.008087	0.027313	0.010529	-0.080109	-0.018005	-0.004425	0.047302	-0.012817	0.17868	0.011292	0.038452	0.016632	0.21194	0.001373	0.016479	0.17059	0.64575	0.10529	-0.21439	0.27252	0.28259	0.57816	-0.087585	-0.028534	0.054016	0.033264	-1.6402	0.027008	-0.003967	-0.001984
54.742	0.006104	0.52628	-0.032501	0.043335	0.022278	-0.063171	-0.029449	-0.002594	0.029755	-0.003662	0.11185	0.010529	-0.064697	0.0914	0.12207	-0.00412	0.032654	0.090332	1.0155	0.18433	-0.21362	-0.11658	0.1947	-0.09491	-0.38361	0.057678	0.15854	-0.01358	-2.0366	-0.037842	-0.003052	0.005035
54.743	0.007629	0.54184	-0.009766	0.022125	0.018311	-0.071106	-0.019684	-0.00824	0.039063	-0.009003	0.17731	0.014343	-0.019836	0.082855	0.075684	0.005035	0.024719	0.075836	0.59723	0.19424	0.13336	-0.21301	-0.039825	-0.69031	-0.22888	0.063019	-0.10925	0.032959	0.49606	0.16159	-0.001678	-0.015717
54.744	0.003052	0.51834	0.005798	-0.005493	0.009613	-0.04364	-0.041199	-0.007629	0.039368	0.009003	-0.008087	-0.00061	0.062408	0.080414	-0.069427	-0.009766	-0.003662	0.11246	0.53024	0.1178	0.10666	-0.14786	-0.034485	-1.1752	-0.007477	0.030365	-0.121	-0.017548	0.56137	0.50354	0.001068	-0.007019
54.745	0.006256	0.55893	0.057831	-0.011444	0.014343	-0.047913	-0.044861	-0.014191	0.022278	0.005646	0.098724	0.009613	-0.010071	0.07843	0.42236	-0.011749	-0.040283	0.15381	0.26154	-0.02243	0.064697	0.27237	-0.31387	-0.7164	0.20599	0.019073	-0.045319	-0.31738	0.39414	0.38513	-0.003967	0.001831
54.746	0.00061	0.5339	0.12421	-0.012054	0.02533	-0.093384	-0.037231	-0.01709	0.016327	0.011597	0.099792	-0.000763	-0.088043	0.040283	0.062714	-0.026703	-0.000458	0.11307	-0.10651	-0.15182	0.033722	0.36697	-0.2803	-0.0737	0.24078	0.004272	0.010834	0.15335	0.071564	0.17654	-0.003815	-0.008698
54.747	-0.000916	0.50674	0.074005	-0.00061	0.012817	-0.061951	-0.009003	-0.014343	0.015869	0.004578	0.1889	0.012054	-0.1149	0.044098	0.13779	0.001526	0.031433	0.094757	-0.59006	-0.071716	0.036316	0.14053	0.17425	0.11841	0.06424	0.028381	0.10498	0.15686	-0.94208	-0.12665	-0.001831	-0.000153
54.748	-0.00824	0.51361	0.009613	0.000305	0.012665	-0.017548	-0.019531	-0.007629	0.004578	-0.00824	0.25986	0.012512	-0.035248	0.014648	-0.63614	-0.027161	0.003357	0.13428	-0.68665	-0.013123	0.1265	0.094299	0.10483	0.023041	0.027008	0.029602	0.06958	0.037537	-0.67719	-0.15991	-0.000458	-0.002899
54.749	-0.007782	0.52841	-0.003204	-0.003662	0.003967	0.003204	0.057526	-0.00412	-0.012512	0.000763	0.20172	0.009308	0.013123	0.025482	0.58579	-0.023651	-0.01358	0.18219	0.053406	0.059357	0.16769	0.21454	-0.065002	-0.003815	-0.25513	0.026245	0.027618	0.01297	0.32837	-0.10773	0.001221	-0.010986
54.75	-0.005341	0.50644	0.006104	0.012054	0.000916	0.057983	0.059814	-0.004883	-0.028992	0.024719	0.047302	0.005341	-0.039063	0.002594	0.53726	-0.002899	-0.009613	0.16998	0.42862	0.057678	0.001526	0.31082	-0.34805	0.010681	-0.58563	0.020752	0.050812	0.005646	-0.15198	-0.32135	-0.002747	-0.009613
54.751	-0.00885	0.5275	0.003967	0.010529	0.004425	0.063477	0.056	-0.007782	-0.030365	-0.007019	-0.11917	0.008698	0.051422	0.002899	-0.30182	0.001984	0.044556	0.15228	0.93857	-0.11841	-0.068054	0.34668	-0.45136	-0.12039	-0.33142	0.009155	0.013733	0.001526	1.1305	-0.42923	-0.000916	-0.007782
54.752	-0.008392	0.51621	0.021667	-0.002441	-0.002747	0.064545	0.072327	-0.009613	-0.019989	-0.014954	-0.063171	0.003357	0.06897	0.071411	-0.46173	0.001984	0.098724	0.21606	0.32501	-0.068665	-0.017853	0.16449	-0.26184	-0.038757	-0.092773	-0.000916	0.071106	-0.007477	0.61005	-0.52841	-0.002441	-0.004425
54.753	-0.014191	0.47852	0.046844	0.008087	-0.004578	0.051117	0.028839	-0.011902	-0.023804	-0.008545	-0.096741	0.008698	0.05722	0.11902	0.076599	0	0.11383	0.13016	0.21027	-0.081635	-0.30838	0.12299	-0.27496	-0.12024	-0.039063	0.003815	0.088196	-0.01236	0.37842	-0.50095	-0.002899	-0.003815
54.754	-0.011749	0.50858	0.05722	0.009918	-0.001526	0.056915	-0.00351	0.001221	-0.024109	-0.011139	-0.12787	0.010681	0.079041	0.19791	-0.37537	-0.002747	0.074768	0.12833	0.20432	-0.054321	-0.65155	0.075378	-0.13565	-0.043182	-0.18478	-0.001373	-0.002747	-0.018005	-0.28046	-0.32196	-0.000305	-0.013428
54.755	-0.00473	0.47501	-0.049438	0.015869	0.001221	0.031891	-0.023193	-0.01709	-0.003052	0.008545	-0.046234	0.006104	0.026703	0.14404	-0.094299	0.012665	0.041809	0.15549	-0.17578	0.10254	-0.4538	0.055695	-0.10895	-0.15366	-0.33005	-0.000153	-0.052185	-0.023346	-0.33371	-0.13794	-0.000305	0.001221
54.756	-0.000458	0.44449	-0.091095	0.013428	0.001373	0.012512	-0.042725	-0.00473	-0.003662	0.006866	-0.095062	0.006866	-0.006714	0.003967	0.1442	-0.000305	0.011444	0.06546	-0.11978	0.12817	-0.34485	0.25742	-0.13229	-0.40344	-0.27313	-0.002899	0.02594	-0.023346	-0.34409	-0.16113	-0.003357	-0.010986
54.757	0.007019	0.38803	-0.080872	0.003052	-0.001526	-0.020599	-0.059662	-0.010834	-0.000153	0	-0.18036	0.006256	0.031891	-0.042572	0.30243	-0.002136	-0.06134	0.028381	-0.23086	0.059204	0.24033	0.5513	-0.059967	-0.39383	-0.004578	-0.005798	0.20218	-0.007629	-0.68954	-0.12756	0.006714	-0.015259
54.758	0.007629	0.36179	0.004578	0.006409	0.000153	-0.019531	-0.068665	-0.009766	0.007019	-0.028381	0.042267	0.007629	0.071259	0.016785	0.14221	-0.003204	-0.08194	0.081177	-0.22018	0.070496	0.19165	0.52811	-0.054016	-0.28427	0.098724	0.007477	0.28534	-0.007935	-0.30762	-0.098724	-0.005798	-0.007629
54.759	0.013733	0.31952	0.062256	0.024414	0.00885	-0.014343	-0.044861	-0.009003	0.010223	-0.041199	0.3598	0.005646	0.029144	0.067749	-0.015869	0.003967	-0.051422	0.17441	0.25238	0.039673	0.000153	0.47882	-0.009918	-0.21774	0.059357	-0.001526	0.23743	-0.010681	0.06012	-0.096588	-0.003967	0.010223
